<svg width="152" height="169" viewBox="0 0 152 169" fill="none" xmlns="http://www.w3.org/2000/svg">
<g opacity="0.3" filter="url(#filter0_d_272_28)">
<g filter="url(#filter1_d_272_28)">
<g filter="url(#filter2_d_272_28)">
<path fill-rule="evenodd" clip-rule="evenodd" d="M75.6545 44.2172C82.6139 40.7375 91.0632 38.8377 98.7826 38.1777L107.472 37.4178C116.981 36.5978 126.5 37.0978 136.019 37.0978H141.249V42.3174C141.249 65.5054 141.249 88.6935 141.249 111.892V114.551C141.249 138.489 121.671 158.068 97.7227 158.068H10V37.0978H15.2196C24.7588 37.0978 34.238 36.4778 43.7772 37.2078L52.4565 37.8677C60.7058 38.4877 68.2551 40.4875 75.6545 44.2172V44.2172Z" fill="#4D4C4B"/>
<path fill-rule="evenodd" clip-rule="evenodd" d="M15.2195 42.3173V101.912V111.891V114.551V152.848H53.5164H59.5258H97.7227C118.791 152.848 136.019 135.609 136.019 114.551V111.891C136.019 88.8334 136.019 66.3453 136.019 42.3173C126.87 42.3173 117.201 42.0973 107.922 42.6172L99.2325 43.3672C90.7333 44.4071 82.134 46.3869 75.6245 50.1466C68.5851 46.0869 60.9157 44.0671 52.0565 43.0672L43.3772 42.4072C33.908 41.9673 24.1988 42.3173 15.2195 42.3173V42.3173Z" fill="#5FB74E"/>
<path fill-rule="evenodd" clip-rule="evenodd" d="M26.0587 152.848H53.5164H59.5259H97.7227C107.062 152.848 115.631 149.458 122.291 143.869C114.511 125.8 96.5428 113.151 75.6245 113.151C51.3765 113.151 31.1082 130.13 26.0587 152.848Z" fill="#89C45F"/>
<path fill-rule="evenodd" clip-rule="evenodd" d="M75.6245 152.848L98.1726 152.508C107.382 152.508 115.761 149.268 122.291 143.869C130.7 136.929 136.019 126.41 136.019 114.551V111.892C136.019 88.8335 136.019 66.3453 136.019 42.3173C126.87 42.3173 117.201 42.0973 107.922 42.6173L99.2325 43.3672C90.7333 44.4072 82.134 46.387 75.6245 50.1467V152.848Z" fill="#4A9E4B"/>
<path fill-rule="evenodd" clip-rule="evenodd" d="M75.6245 152.848H97.8627C107.202 152.848 115.631 149.468 122.291 143.869C114.601 126 96.2428 113.431 75.6245 113.151V152.848Z" fill="#5FB74E"/>
<path fill-rule="evenodd" clip-rule="evenodd" d="M107.922 39.0076C106.262 22.6989 92.4831 10 75.7645 10C59.0359 10 45.267 22.589 43.3772 38.7976L52.0565 39.4675C53.5963 27.7585 63.5755 18.7093 75.7245 18.7093C87.8735 18.7093 97.9427 27.9085 99.2325 39.7475L107.922 39.0076Z" fill="#4D4C4B"/>
<path fill-rule="evenodd" clip-rule="evenodd" d="M89.7434 118.241C85.9637 122.241 82.184 126.25 78.4043 130.25L75.6245 133.2L72.8448 130.25C69.0551 126.25 65.2754 122.241 61.4957 118.241L59.5359 116.161L60.9658 113.691C64.0055 108.462 69.675 105.652 75.6245 105.652C81.564 105.652 87.2336 108.462 90.2733 113.691L91.7032 116.161L89.7434 118.241V118.241Z" fill="#4D4C4B"/>
<path fill-rule="evenodd" clip-rule="evenodd" d="M86.9636 115.621C83.1839 119.621 79.4042 123.621 75.6245 127.63C71.8448 123.621 68.0551 119.621 64.2755 115.621C66.6653 111.502 71.1449 109.462 75.6245 109.472C80.0941 109.462 84.5738 111.502 86.9636 115.621Z" fill="#FDF8B4"/>
<path fill-rule="evenodd" clip-rule="evenodd" d="M86.9636 115.621C83.1839 119.621 79.4042 123.621 75.6245 127.63V109.472C80.0941 109.462 84.5738 111.502 86.9636 115.621V115.621Z" fill="#FCD066"/>
<path fill-rule="evenodd" clip-rule="evenodd" d="M47.2769 57.3861C64.2255 57.3861 77.9643 71.135 77.9643 88.0736C77.9643 105.012 64.2255 118.761 47.2769 118.761C30.3283 118.761 16.5995 105.012 16.5995 88.0736C16.5995 71.135 30.3283 57.3861 47.2769 57.3861Z" fill="#4D4C4B"/>
<path fill-rule="evenodd" clip-rule="evenodd" d="M47.2769 62.6056C61.3357 62.6056 72.7448 74.0146 72.7448 88.0735C72.7448 102.132 61.3357 113.531 47.2769 113.531C33.2081 113.531 21.809 102.132 21.809 88.0735C21.809 74.0146 33.2081 62.6056 47.2769 62.6056V62.6056Z" fill="#EEEFEE"/>
<path fill-rule="evenodd" clip-rule="evenodd" d="M47.2769 62.6056C58.8859 62.6056 68.6751 70.3749 71.7449 80.9941C68.6751 91.6132 58.8859 99.3825 47.2769 99.3825C35.6679 99.3825 25.8787 91.6132 22.8189 80.9941C25.8787 70.3749 35.6679 62.6056 47.2769 62.6056Z" fill="#FEFEFE"/>
<path fill-rule="evenodd" clip-rule="evenodd" d="M103.962 57.3861C120.911 57.3861 134.65 71.135 134.65 88.0736C134.65 105.012 120.911 118.761 103.962 118.761C87.0236 118.761 73.2747 105.022 73.2747 88.0736C73.2747 71.135 87.0236 57.3861 103.962 57.3861Z" fill="#4D4C4B"/>
<path fill-rule="evenodd" clip-rule="evenodd" d="M103.962 62.6056C118.031 62.6056 129.43 74.0146 129.43 88.0735C129.43 102.132 118.031 113.531 103.962 113.531C89.9033 113.531 78.5043 102.132 78.5043 88.0735C78.5043 74.0146 89.9033 62.6056 103.962 62.6056V62.6056Z" fill="#EEEFEE"/>
<path fill-rule="evenodd" clip-rule="evenodd" d="M103.962 62.6056C115.571 62.6056 125.37 70.3749 128.43 80.9941C125.37 91.6132 115.571 99.3825 103.962 99.3825C92.3531 99.3825 82.5639 91.6132 79.4942 80.9941C82.5639 70.3749 92.3531 62.6056 103.962 62.6056Z" fill="#FEFEFE"/>
<path fill-rule="evenodd" clip-rule="evenodd" d="M50.4766 72.2349C59.5559 72.2349 66.9253 79.5942 66.9253 88.6735C66.9253 97.7627 59.5559 105.122 50.4766 105.122C41.3874 105.122 34.028 97.7627 34.028 88.6735C34.028 85.6437 34.8579 82.804 36.2778 80.3742C37.4577 83.2739 40.2975 85.3138 43.6272 85.3138C47.9968 85.3138 51.5466 81.7741 51.5466 77.3944C51.5466 75.4246 50.8366 73.6347 49.6467 72.2549C49.9267 72.2349 50.2067 72.2349 50.4766 72.2349V72.2349Z" fill="#4D4C4B"/>
<path fill-rule="evenodd" clip-rule="evenodd" d="M100.762 72.2349C109.852 72.2349 117.211 79.5942 117.211 88.6735C117.211 97.7627 109.852 105.122 100.762 105.122C91.6832 105.122 84.3138 97.7627 84.3138 88.6735C84.3138 85.6437 85.1337 82.804 86.5636 80.3742C87.7435 83.2739 90.5933 85.3138 93.913 85.3138C98.2926 85.3138 101.832 81.7741 101.832 77.3944C101.832 75.4246 101.122 73.6347 99.9325 72.2549C100.212 72.2349 100.482 72.2349 100.762 72.2349Z" fill="#4D4C4B"/>
</g>
</g>
</g>
<defs>
<filter id="filter0_d_272_28" x="-4" y="0" width="159.249" height="176.068" filterUnits="userSpaceOnUse" color-interpolation-filters="sRGB">
<feFlood flood-opacity="0" result="BackgroundImageFix"/>
<feColorMatrix in="SourceAlpha" type="matrix" values="0 0 0 0 0 0 0 0 0 0 0 0 0 0 0 0 0 0 127 0" result="hardAlpha"/>
<feOffset dy="4"/>
<feGaussianBlur stdDeviation="2"/>
<feComposite in2="hardAlpha" operator="out"/>
<feColorMatrix type="matrix" values="0 0 0 0 0 0 0 0 0 0 0 0 0 0 0 0 0 0 0.25 0"/>
<feBlend mode="normal" in2="BackgroundImageFix" result="effect1_dropShadow_272_28"/>
<feBlend mode="normal" in="SourceGraphic" in2="effect1_dropShadow_272_28" result="shape"/>
</filter>
<filter id="filter1_d_272_28" x="6" y="10" width="139.249" height="156.068" filterUnits="userSpaceOnUse" color-interpolation-filters="sRGB">
<feFlood flood-opacity="0" result="BackgroundImageFix"/>
<feColorMatrix in="SourceAlpha" type="matrix" values="0 0 0 0 0 0 0 0 0 0 0 0 0 0 0 0 0 0 127 0" result="hardAlpha"/>
<feOffset dy="4"/>
<feGaussianBlur stdDeviation="2"/>
<feComposite in2="hardAlpha" operator="out"/>
<feColorMatrix type="matrix" values="0 0 0 0 0 0 0 0 0 0 0 0 0 0 0 0 0 0 0.25 0"/>
<feBlend mode="normal" in2="BackgroundImageFix" result="effect1_dropShadow_272_28"/>
<feBlend mode="normal" in="SourceGraphic" in2="effect1_dropShadow_272_28" result="shape"/>
</filter>
<filter id="filter2_d_272_28" x="6" y="10" width="139.249" height="156.068" filterUnits="userSpaceOnUse" color-interpolation-filters="sRGB">
<feFlood flood-opacity="0" result="BackgroundImageFix"/>
<feColorMatrix in="SourceAlpha" type="matrix" values="0 0 0 0 0 0 0 0 0 0 0 0 0 0 0 0 0 0 127 0" result="hardAlpha"/>
<feOffset dy="4"/>
<feGaussianBlur stdDeviation="2"/>
<feComposite in2="hardAlpha" operator="out"/>
<feColorMatrix type="matrix" values="0 0 0 0 0 0 0 0 0 0 0 0 0 0 0 0 0 0 0.25 0"/>
<feBlend mode="normal" in2="BackgroundImageFix" result="effect1_dropShadow_272_28"/>
<feBlend mode="normal" in="SourceGraphic" in2="effect1_dropShadow_272_28" result="shape"/>
</filter>
</defs>
</svg>
